<?xml version="1.0" encoding="UTF-8"?><svg id="Calque_2" xmlns="http://www.w3.org/2000/svg" xmlns:xlink="http://www.w3.org/1999/xlink" viewBox="0 0 174.68 171.51"><defs><style>.cls-1{fill:none;stroke:url(#Nouvelle_nuance_de_dégradé_1_2-2);stroke-miterlimit:10;}.cls-2{fill:url(#Nouvelle_nuance_de_dégradé_1_2);}</style><linearGradient id="Nouvelle_nuance_de_dégradé_1_2" x1="9.48" y1="130.05" x2="163.66" y2="41.03" gradientTransform="matrix(1, 0, 0, 1, 0, 0)" gradientUnits="userSpaceOnUse"><stop offset="0" stop-color="#29235c"/><stop offset=".5" stop-color="#1d70b7"/><stop offset="1" stop-color="#00a099"/></linearGradient><linearGradient id="Nouvelle_nuance_de_dégradé_1_2-2" x1="21.09" y1="120.89" x2="148.42" y2="47.37" xlink:href="#Nouvelle_nuance_de_dégradé_1_2"/></defs><g id="rond_stories"><path class="cls-2" d="M171.56,84.62c.4-.37,.98-.51,1.49-.31,1,.4,1.69,1.41,1.64,2.56-.46,10.71-2.85,21.34-7.07,31.17-4.56,10.67-11.24,20.38-19.5,28.45-8.26,8.06-18.09,14.48-28.76,18.75-10.67,4.29-22.17,6.4-33.6,6.27-11.43-.14-22.82-2.52-33.29-7.02-10.47-4.48-20.01-11.04-27.92-19.15-7.91-8.11-14.21-17.76-18.4-28.23C1.94,106.63-.13,95.35,0,84.13c.14-11.22,2.48-22.4,6.89-32.66,4.4-10.27,10.84-19.63,18.8-27.4,7.96-7.77,17.43-13.94,27.71-18.05C63.68,1.9,74.75-.13,85.76,0c11.01,.14,21.97,2.44,32.04,6.77,10.08,4.32,19.25,10.64,26.87,18.44,7.62,7.81,13.67,17.1,17.69,27.18,2.83,7.06,4.63,14.5,5.42,22.03-.03,0-.05,0-.08,0-.06,0-.11,0-.17,0-.98-7.48-2.95-14.82-5.93-21.73-4.24-9.88-10.43-18.88-18.09-26.34-7.66-7.47-16.77-13.4-26.65-17.34-9.88-3.96-20.52-5.9-31.11-5.77-10.59,.14-21.12,2.36-30.8,6.52-9.68,4.15-18.5,10.23-25.82,17.74-7.32,7.51-13.13,16.44-16.99,26.13-3.88,9.68-5.78,20.1-5.65,30.49,.14,10.38,2.31,20.7,6.4,30.17,4.07,9.48,10.03,18.12,17.39,25.29,7.36,7.17,16.11,12.86,25.6,16.64,9.48,3.79,19.69,5.65,29.86,5.52,10.18-.14,20.27-2.27,29.55-6.27,9.28-3.99,17.74-9.83,24.76-17.04,7.02-7.21,12.59-15.79,16.29-25.07,3.07-7.69,3.84-10.51,5.17-18.14,.26-1.5,1.3-2.72,2.67-3.38,2.7-1.3,5.25-5.27,7.35-7.23h0Z"/><circle class="cls-1" cx="84.76" cy="84.13" r="73"/></g></svg>